<?xml version="1.0" encoding="utf-8"?>
<!-- Generator: Adobe Illustrator 14.0.0, SVG Export Plug-In . SVG Version: 6.00 Build 43363)  -->
<!DOCTYPE svg PUBLIC "-//W3C//DTD SVG 1.1//EN" "http://www.w3.org/Graphics/SVG/1.1/DTD/svg11.dtd">
<svg version="1.1" xmlns="http://www.w3.org/2000/svg" xmlns:xlink="http://www.w3.org/1999/xlink" x="0px" y="0px" width="2500px"
	 height="2246px" viewBox="0 0 2500 2246" enable-background="new 0 0 2500 2246" xml:space="preserve">
<g id="Layer_1" display="none">
	<path display="inline" fill="#FFFFFF" d="M7.363,1120.559c0,187.639,183.225,362.798,472.081,461.533
		c-57.684,290.389-10.332,524.451,147.806,615.648c162.542,93.746,404.7,28.856,634.544-172.062
		c224.044,192.804,450.47,268.68,608.471,177.219c162.396-94.01,211.778-343.941,152.504-643.4
		c300.866-99.469,469.16-248.828,469.16-438.938c0-183.283-183.557-341.841-468.525-439.942
		c63.815-311.833,9.745-540.212-154.945-635.179c-158.772-91.559-387.835-11.757-615.169,186.086
		C1016.774,21.532,789.977-42.576,625.462,52.654c-158.626,91.822-203.888,330.143-146.019,625.901
		C200.333,775.866,7.363,938.018,7.363,1120.559z"/>
	<path display="inline" fill="#53C1DE" d="M1963.053,778.034c-23.485-8.057-47.171-15.52-71.032-22.382
		c3.957-16.079,7.616-32.23,10.977-48.445c53.767-261.005,18.612-471.27-101.441-540.485
		c-115.103-66.384-303.356,2.832-493.485,168.284c-18.734,16.34-37.054,33.151-54.939,50.418
		c-11.978-11.481-24.166-22.739-36.561-33.769c-199.26-176.926-398.987-251.474-518.914-182.053
		c-114.995,66.569-149.057,264.247-100.65,511.6c4.816,24.495,10.254,48.864,16.309,73.083
		c-28.261,8.027-55.555,16.581-81.667,25.683c-233.604,81.441-382.796,209.093-382.796,341.489
		c0,136.752,160.149,273.914,403.479,357.075c19.73,6.712,39.625,12.931,59.666,18.651c-6.511,26.092-12.291,52.361-17.334,78.776
		c-46.15,243.057-10.106,436.046,104.586,502.206c118.462,68.307,317.281-1.904,510.887-171.136
		c15.302-13.379,30.663-27.567,46.043-42.439c19.373,18.69,39.262,36.839,59.646,54.421
		c187.531,161.371,372.738,226.534,487.333,160.199c118.354-68.514,156.81-275.839,106.87-528.084
		c-3.809-19.267-8.252-38.943-13.231-58.981c13.964-4.121,27.665-8.379,41.033-12.812
		c252.958-83.805,417.531-219.298,417.531-357.876C2355.36,988.582,2201.363,860.072,1963.053,778.034L1963.053,778.034z"/>
	<path display="inline" fill="#FFFFFF" d="M1908.183,1389.864c-12.061,3.993-24.442,7.851-37.06,11.591
		c-27.929-88.404-65.622-182.414-111.733-279.529c44.012-94.82,80.241-187.619,107.388-275.457
		c22.567,6.543,44.48,13.427,65.594,20.702c204.19,70.28,328.736,174.212,328.736,254.286c0,85.299-134.517,196.037-352.916,268.407
		H1908.183z M1817.561,1569.437c22.08,111.538,25.233,212.384,10.605,291.219c-13.144,70.837-39.568,118.062-72.243,136.977
		c-69.538,40.252-218.253-12.07-378.617-150.072c-18.388-15.819-36.912-32.713-55.485-50.583
		c62.175-68.006,124.311-147.064,184.953-234.854c106.675-9.463,207.452-24.941,298.845-46.062
		C1810.11,1534.224,1814.113,1552.025,1817.561,1569.437L1817.561,1569.437z M901.096,1990.679
		c-67.938,23.993-122.046,24.677-154.75,5.82c-69.606-40.136-98.531-195.109-59.069-402.962
		c4.692-24.564,10.065-48.993,16.112-73.259c90.377,19.989,190.422,34.374,297.351,43.045
		c61.043,85.905,124.976,164.866,189.406,234.014c-13.693,13.246-27.71,26.153-42.039,38.71
		c-85.611,74.84-171.399,127.924-247.001,154.632H901.096z M582.817,1389.337c-107.593-36.776-196.447-84.567-257.353-136.714
		c-54.724-46.873-82.36-93.404-82.36-131.166c0-80.338,119.79-182.824,319.577-252.479c25.076-8.705,50.401-16.673,75.944-23.896
		c27.616,89.811,63.835,183.713,107.544,278.67c-44.275,96.373-81.012,191.77-108.882,282.635
		C618.994,1401.15,600.832,1395.466,582.817,1389.337z M689.513,663.098c-41.474-211.935-13.936-371.801,55.368-411.917
		c73.825-42.733,237.051,18.202,409.095,170.959c10.995,9.766,22.04,19.989,33.104,30.565
		c-64.099,68.835-127.445,147.2-187.961,232.607c-103.774,9.618-203.116,25.067-294.44,45.76
		c-5.626-22.531-10.683-45.2-15.165-67.985V663.098z M1641.299,898.117c-21.57-37.26-43.941-74.051-67.097-110.348
		c70.407,8.887,137.855,20.703,201.192,35.165c-19.013,60.944-42.713,124.673-70.622,190.002
		C1684.381,974.244,1663.219,935.964,1641.299,898.117L1641.299,898.117z M1253.161,520.066
		c43.475,47.098,87.018,99.693,129.848,156.751c-86.881-4.105-173.907-4.125-260.79-0.059
		C1165.088,620.229,1209.002,567.711,1253.161,520.066z M862.532,898.762c-21.646,37.545-42.412,75.592-62.282,114.106
		c-27.45-65.104-50.936-129.116-70.114-190.93c62.956-14.091,130.092-25.604,200.04-34.345
		C906.762,824.115,884.207,861.182,862.532,898.762z M932.188,1462.049c-72.263-8.066-140.414-18.994-203.351-32.694
		c19.481-62.907,43.484-128.296,71.521-194.797c19.954,38.544,40.812,76.612,62.556,114.175
		C885.101,1387.05,908.199,1424.832,932.188,1462.049z M1255.768,1729.508c-44.676-48.211-89.234-101.529-132.758-158.88
		c42.244,1.66,85.318,2.5,129.097,2.5c44.979,0,89.439-1.006,133.197-2.959C1342.337,1628.564,1298.95,1681.961,1255.768,1729.508z
		 M1705.671,1231.17c29.491,67.224,54.354,132.26,74.099,194.103c-63.981,14.6-133.051,26.356-205.831,35.087
		c23.322-36.975,45.907-74.408,67.741-112.281C1663.875,1309.589,1685.21,1270.609,1705.671,1231.17L1705.671,1231.17z
		 M1560.023,1300.99c-33.425,58.064-68.729,115.025-105.855,170.794c-65.466,4.678-133.119,7.09-202.062,7.09
		c-68.659,0-135.454-2.139-199.777-6.309c-38.09-55.639-74.062-112.698-107.837-171.058
		c-33.618-58.049-65.02-117.354-94.137-177.785c29.043-60.45,60.35-119.786,93.854-177.883v0.02
		c33.493-58.109,69.182-114.926,106.987-170.325c65.622-4.961,132.905-7.559,200.919-7.559c68.318,0,135.688,2.617,201.291,7.617
		c37.424,55.314,72.884,111.933,106.313,169.749c33.619,57.967,65.344,117.013,95.123,177.043
		c-29.473,60.642-61.097,120.215-94.811,178.605H1560.023z M1754.478,248.378c73.884,42.615,102.623,214.454,56.199,439.806
		c-3.043,14.68-6.351,29.304-9.922,43.865c-91.539-21.122-190.949-36.845-295.026-46.609
		c-60.633-86.335-123.452-164.837-186.516-232.783c16.525-15.932,33.443-31.45,50.739-46.541
		C1532.855,264.345,1685.105,208.37,1754.478,248.378L1754.478,248.378z"/>
	<path display="inline" fill="#53C1DE" d="M1252.105,924.425c108.824,0,197.033,88.219,197.033,197.032
		c0,108.824-88.209,197.043-197.033,197.043c-108.813,0-197.032-88.219-197.032-197.043
		C1055.073,1012.644,1143.292,924.425,1252.105,924.425"/>
</g>
<g id="Layer_4">
	<g>
		<g>
			<path fill="#1CDE78" d="M1725.751,1993.338c-0.001,0-0.001,0-0.002,0c-19.756-0.001-38.158-10.62-48.025-27.714l-393.642-681.803
				l12.551-3.394c14.074-3.806,27.653-9.455,40.359-16.79c12.435-7.18,23.883-15.88,34.026-25.858l9.212-9.062l393.463,681.498
				c7.4,12.817,9.367,27.75,5.536,42.046c-3.83,14.296-12.998,26.245-25.816,33.646
				C1744.992,1990.768,1735.427,1993.338,1725.751,1993.338L1725.751,1993.338z"/>
			<path fill="#1CDE78" d="M1124.581,1007.558L730.94,325.753c-15.276-26.46-6.177-60.415,20.282-75.69
				c8.42-4.861,17.986-7.431,27.662-7.431c19.756,0,38.16,10.618,48.028,27.711l393.465,681.5l-12.455,3.446
				c-13.715,3.795-26.973,9.359-39.407,16.539c-12.705,7.335-24.386,16.27-34.72,26.556L1124.581,1007.558L1124.581,1007.558z"/>
			<path fill="#1CDE78" d="M2199.099,1173.394h-787.277l3.336-12.566c3.741-14.09,5.638-28.674,5.638-43.347
				c0-14.354-1.811-28.618-5.381-42.396l-3.241-12.508h786.926c30.553,0,55.409,24.857,55.409,55.41
				C2254.508,1148.537,2229.651,1173.394,2199.099,1173.394L2199.099,1173.394z"/>
			<path fill="#1CDE78" d="M1092.817,1173.394h-787.28c-30.553,0-55.41-24.856-55.41-55.408c0-30.553,24.857-55.41,55.41-55.41
				h786.928l-3.242,12.509c-3.57,13.776-5.381,28.04-5.381,42.396c0,14.673,1.897,29.257,5.638,43.347L1092.817,1173.394
				L1092.817,1173.394z"/>
			<path fill="#1CDE78" d="M1380.054,1007.556l-9.214-9.173c-10.329-10.283-22.011-19.217-34.721-26.556
				c-12.437-7.179-25.694-12.743-39.405-16.538l-12.454-3.447l393.463-681.499c9.868-17.093,28.271-27.712,48.027-27.712
				c9.677,0,19.242,2.57,27.662,7.431c12.817,7.399,21.986,19.348,25.817,33.645c3.83,14.296,1.864,29.229-5.536,42.046
				L1380.054,1007.556L1380.054,1007.556z"/>
			<path fill="#1CDE78" d="M778.887,1993.338c-0.002,0-0.001,0-0.003,0c-9.678-0.001-19.243-2.57-27.663-7.432
				c-12.817-7.399-21.985-19.348-25.816-33.645c-3.831-14.296-1.865-29.229,5.535-42.045l393.463-681.499l9.212,9.062
				c10.147,9.98,21.596,18.68,34.027,25.856c12.708,7.337,26.286,12.986,40.359,16.791l12.551,3.394l-393.64,681.805
				C817.044,1982.718,798.64,1993.338,778.887,1993.338L778.887,1993.338z"/>
			<path fill="#1CDE78" d="M1252.843,1856.46c-99.689,0-196.401-19.526-287.45-58.037c-87.938-37.195-166.913-90.44-234.729-158.258
				c-67.817-67.817-121.062-146.791-158.257-234.729c-38.51-91.049-58.037-187.761-58.037-287.449
				c0-99.69,19.527-196.403,58.037-287.453c37.195-87.938,90.44-166.914,158.257-234.731
				c67.817-67.817,146.791-121.063,234.729-158.258c91.049-38.511,187.761-58.038,287.45-58.038
				c99.689,0,196.402,19.527,287.452,58.038c87.938,37.195,166.914,90.44,234.73,158.258
				c67.817,67.817,121.063,146.792,158.259,234.731c38.511,91.05,58.037,187.763,58.037,287.453
				c0,99.688-19.526,196.4-58.037,287.449c-37.195,87.938-90.441,166.912-158.259,234.729s-146.792,121.062-234.73,158.258
				C1449.245,1836.934,1352.532,1856.46,1252.843,1856.46L1252.843,1856.46z M1252.843,489.508
				c-84.887,0-167.183,16.603-244.6,49.348c-37.217,15.742-73.122,35.231-106.716,57.927c-33.3,22.498-64.618,48.338-93.083,76.802
				c-28.463,28.463-54.303,59.781-76.801,93.083c-22.695,33.593-42.185,69.498-57.927,106.717
				c-32.745,77.417-49.348,159.713-49.348,244.602c0,84.887,16.603,167.181,49.348,244.598
				c15.742,37.218,35.231,73.123,57.927,106.717c22.5,33.303,48.339,64.619,76.801,93.081
				c28.466,28.466,59.784,54.307,93.083,76.803c33.592,22.693,69.497,42.184,106.716,57.927
				c77.418,32.744,159.713,49.348,244.6,49.348c84.887,0,167.183-16.604,244.602-49.348c37.22-15.743,73.125-35.232,106.718-57.927
				c33.3-22.498,64.617-48.338,93.082-76.803c28.462-28.46,54.302-59.777,76.803-93.083c22.693-33.59,42.183-69.494,57.927-106.715
				c32.745-77.418,49.348-159.713,49.348-244.598c0-84.887-16.603-167.183-49.348-244.602
				c-15.743-37.221-35.232-73.125-57.928-106.717c-22.498-33.302-48.338-64.62-76.802-93.083
				c-28.465-28.464-59.782-54.304-93.083-76.802c-33.593-22.695-69.498-42.185-106.717-57.927
				C1420.026,506.111,1337.73,489.508,1252.843,489.508L1252.843,489.508z"/>
		</g>
	</g>
	<g>
		<g>
			<path fill="#1CDE78" d="M2244.508,1228.537c-60.959,0-110.553-49.594-110.553-110.552c0-60.959,49.594-110.553,110.553-110.553
				c60.96,0,110.554,49.594,110.554,110.553C2355.062,1178.943,2305.468,1228.537,2244.508,1228.537L2244.508,1228.537z"/>
			<path fill="#1CDE78" d="M260.127,1228.537c-60.959,0-110.553-49.594-110.553-110.552c0-60.959,49.594-110.553,110.553-110.553
				s110.553,49.594,110.553,110.553C370.68,1178.943,321.086,1228.537,260.127,1228.537L260.127,1228.537z"/>
			<path fill="#1CDE78" d="M1748.47,2087.81c-39.4,0-76.108-21.184-95.799-55.285c-30.479-52.799-12.325-120.544,40.466-151.02
				c16.793-9.695,35.889-14.821,55.221-14.821c39.4,0,76.107,21.185,95.796,55.285c14.766,25.576,18.688,55.368,11.045,83.892
				c-7.644,28.524-25.938,52.364-51.512,67.128C1786.897,2082.684,1767.802,2087.81,1748.47,2087.81L1748.47,2087.81z"/>
			<path fill="#1CDE78" d="M756.279,369.285c-39.402,0-76.109-21.185-95.798-55.288c-14.765-25.572-18.687-55.365-11.044-83.889
				c7.643-28.523,25.936-52.364,51.51-67.128c16.793-9.696,35.888-14.821,55.219-14.821c39.402,0,76.109,21.185,95.798,55.288
				c14.765,25.571,18.688,55.364,11.044,83.889c-7.643,28.524-25.937,52.364-51.51,67.128
				C794.704,364.16,775.609,369.285,756.279,369.285L756.279,369.285z"/>
			<path fill="#1CDE78" d="M1748.354,369.286c-19.33,0-38.425-5.125-55.219-14.82c-52.79-30.481-70.942-98.227-40.465-151.018
				c19.69-34.104,56.398-55.288,95.8-55.288c19.332,0,38.427,5.125,55.221,14.823c52.788,30.477,70.942,98.222,40.464,151.015
				C1824.466,348.101,1787.757,369.286,1748.354,369.286L1748.354,369.286z"/>
			<path fill="#1CDE78" d="M756.165,2087.81c-19.332,0-38.427-5.126-55.221-14.823c-52.789-30.475-70.942-98.221-40.464-151.015
				c19.692-34.104,56.399-55.288,95.798-55.288c19.331,0,38.427,5.126,55.222,14.823c52.791,30.479,70.943,98.225,40.464,151.016
				C832.272,2066.626,795.564,2087.81,756.165,2087.81L756.165,2087.81z"/>
		</g>
	</g>
	<path fill="#1CDE78" d="M1438.879,1117.987c0,102.746-83.294,186.039-186.041,186.039s-186.041-83.293-186.041-186.039
		c0-102.749,83.293-186.042,186.041-186.042S1438.879,1015.238,1438.879,1117.987z"/>
</g>
</svg>
