<?xml version="1.0" standalone="no"?>
<!DOCTYPE svg PUBLIC "-//W3C//DTD SVG 20010904//EN"
 "http://www.w3.org/TR/2001/REC-SVG-20010904/DTD/svg10.dtd">
<svg version="1.0" xmlns="http://www.w3.org/2000/svg"
 width="300.000000pt" height="300.000000pt" viewBox="0 0 300.000000 300.000000"
 preserveAspectRatio="xMidYMid meet">
<metadata>
Created by potrace 1.11, written by Peter Selinger 2001-2013
</metadata>
<g transform="translate(0.000000,300.000000) scale(0.100000,-0.100000)"
fill="#000000" stroke="none">
<path d="M1255 2905 c-191 -36 -392 -121 -548 -232 -82 -59 -225 -193 -264
-249 l-22 -30 55 -32 54 -31 43 46 c251 278 557 417 912 417 341 0 622 -117
863 -360 l103 -104 37 19 c86 45 89 35 -44 168 -65 66 -153 143 -194 170 -147
98 -317 172 -480 208 -106 24 -408 29 -515 10z"/>
<path d="M218 2329 c-30 -17 -41 -47 -29 -77 9 -21 64 -57 228 -151 l216 -125
150 -188 c82 -103 150 -188 152 -188 2 0 23 34 46 75 l43 74 55 -31 c158 -90
146 -79 143 -131 -8 -110 54 -215 152 -258 l56 -24 0 -120 0 -121 -94 -239
-95 -240 93 -3 94 -3 6 -31 c3 -17 6 -120 6 -229 0 -186 1 -199 19 -209 30
-15 66 -12 84 8 15 16 17 48 17 240 l0 222 90 0 c50 0 90 4 90 9 0 5 -40 113
-90 240 l-90 231 0 128 0 128 33 16 c86 41 134 116 145 225 l7 67 93 53 c51
30 97 51 102 48 5 -3 26 -37 47 -75 21 -39 40 -70 43 -69 3 0 74 87 159 194
l154 195 221 127 c213 124 221 129 224 161 4 40 -20 72 -54 72 -12 0 -114 -53
-227 -119 l-205 -118 -259 -38 c-142 -21 -259 -39 -261 -41 -2 -1 17 -38 42
-82 25 -43 46 -81 46 -84 0 -6 -176 -108 -186 -108 -4 0 -22 11 -41 26 -52 39
-97 54 -166 54 -62 0 -104 -15 -173 -59 -19 -13 -30 -9 -113 39 -50 29 -93 56
-96 59 -2 4 16 40 40 81 24 41 44 80 45 85 0 6 -114 27 -262 49 -293 43 -247
27 -512 180 -83 47 -155 86 -160 86 -6 0 -19 -5 -28 -11z"/>
<path d="M211 1988 c-56 -172 -76 -418 -47 -603 74 -483 390 -879 841 -1054
78 -30 265 -81 300 -81 3 0 5 29 5 63 l0 64 -57 12 c-462 98 -821 439 -938
889 -53 203 -53 407 0 610 14 52 25 97 25 102 0 9 -86 60 -100 60 -5 0 -18
-28 -29 -62z"/>
<path d="M2684 2019 l-52 -30 19 -61 c49 -157 63 -384 34 -550 -83 -475 -434
-854 -900 -973 l-90 -23 -3 -61 c-3 -58 -2 -61 21 -61 41 0 189 42 282 80 422
172 720 538 812 996 23 116 23 384 0 496 -20 99 -56 218 -65 217 -4 0 -30 -14
-58 -30z"/>
</g>
</svg>
