<?xml version="1.0" encoding="utf-8"?>
<!-- Generator: Adobe Illustrator 14.0.0, SVG Export Plug-In . SVG Version: 6.00 Build 43363)  -->
<!DOCTYPE svg PUBLIC "-//W3C//DTD SVG 1.1//EN" "http://www.w3.org/Graphics/SVG/1.1/DTD/svg11.dtd">
<svg version="1.1" id="Layer_1" xmlns="http://www.w3.org/2000/svg" xmlns:xlink="http://www.w3.org/1999/xlink" x="0px" y="0px"
	 width="572px" height="576px" viewBox="0 0 572 576" enable-background="new 0 0 572 576" xml:space="preserve">
<polygon fill="#22B573" points="225,306 188.868,287.959 225,270 "/>
<circle fill="none" stroke="#22B573" stroke-width="10" cx="288" cy="288" r="144"/>
<g>
	<line fill="none" stroke="#FFFFFF" stroke-width="20" x1="288" y1="288" x2="288" y2="504"/>
	<line fill="none" stroke="#22B573" stroke-width="5" stroke-linecap="round" x1="288" y1="288" x2="288" y2="504"/>
</g>
<circle fill="#22B573" cx="288" cy="288" r="9"/>
<line fill="none" stroke="#22B573" stroke-width="5" x1="288" y1="288" x2="216" y2="288"/>
<g>
	<line fill="none" stroke="#FFFFFF" stroke-width="10" stroke-linecap="round" x1="171" y1="288" x2="72" y2="288"/>
	<line fill="none" stroke="#22B573" stroke-width="5" stroke-linecap="round" x1="171" y1="288" x2="72" y2="288"/>
</g>
<line fill="none" stroke="#22B573" stroke-width="5" stroke-linecap="round" x1="72" y1="288" x2="72" y2="72"/>
<g>
	<line fill="none" stroke="#FFFFFF" stroke-width="10" stroke-linecap="round" x1="405" y1="288" x2="504" y2="288"/>
	<line fill="none" stroke="#22B573" stroke-width="5" stroke-linecap="round" x1="405" y1="288" x2="504" y2="288"/>
</g>
<line fill="none" stroke="#22B573" stroke-width="5" stroke-linecap="round" x1="504" y1="288" x2="504" y2="72"/>
<circle fill="none" stroke="#22B573" stroke-width="5" cx="180" cy="288" r="9"/>
<circle fill="none" stroke="#22B573" stroke-width="5" cx="396" cy="288" r="9"/>
<g>
	<polyline fill="none" stroke="#FFFFFF" stroke-width="10" stroke-linecap="round" points="234,189 216,162 216,72 	"/>
	<polyline fill="none" stroke="#22B573" stroke-width="5" stroke-linecap="round" points="234,189 216,162 216,72 	"/>
</g>
<g>
	<polyline fill="none" stroke="#FFFFFF" stroke-width="10" stroke-linecap="round" points="342,189 360,162 360,72 	"/>
	<polyline fill="none" stroke="#22B573" stroke-width="5" stroke-linecap="round" points="342,189 360,162 360,72 	"/>
</g>
<circle fill="none" stroke="#22B573" stroke-width="5" cx="243" cy="198" r="9"/>
<circle fill="none" stroke="#22B573" stroke-width="5" cx="333" cy="198" r="9"/>
</svg>
