<?xml version="1.0" encoding="utf-8"?>
<!-- Generator: Adobe Illustrator 14.0.0, SVG Export Plug-In . SVG Version: 6.00 Build 43363)  -->
<!DOCTYPE svg PUBLIC "-//W3C//DTD SVG 1.1//EN" "http://www.w3.org/Graphics/SVG/1.1/DTD/svg11.dtd">
<svg version="1.1" id="Layer_1" xmlns="http://www.w3.org/2000/svg" xmlns:xlink="http://www.w3.org/1999/xlink" x="0px" y="0px"
	 width="572px" height="576px" viewBox="0 0 572 576" enable-background="new 0 0 572 576" xml:space="preserve">
<rect x="72" y="216" fill="none" stroke="#22B573" stroke-width="10" width="432" height="144"/>
<g>
	<line fill="none" stroke="#FFFFFF" stroke-width="10" stroke-linecap="round" x1="144" y1="252" x2="144" y2="144"/>
	<line fill="none" stroke="#22B573" stroke-width="5" stroke-linecap="round" x1="144" y1="252" x2="144" y2="144"/>
</g>
<g>
	<path fill="none" stroke="#FFFFFF" stroke-width="10" stroke-linecap="round" d="M189,216"/>
	<path fill="none" stroke="#22B573" stroke-width="5" stroke-linecap="round" d="M189,216"/>
</g>
<g>
	<line fill="none" stroke="#FFFFFF" stroke-width="10" stroke-linecap="round" x1="432" y1="250" x2="432" y2="144"/>
	<line fill="none" stroke="#22B573" stroke-width="5" stroke-linecap="round" x1="432" y1="250" x2="432" y2="144"/>
</g>
<g>
	<path fill="none" stroke="#FFFFFF" stroke-width="10" stroke-linecap="round" d="M387,216"/>
	<path fill="none" stroke="#22B573" stroke-width="5" stroke-linecap="round" d="M387,216"/>
</g>
<polygon fill="#22B573" points="126,198.133 144.041,162 162,198.133 "/>
<polygon fill="#22B573" points="414,198 432.041,161.867 450,198 "/>
<g>
	<line fill="none" stroke="#FFFFFF" stroke-width="10" stroke-linecap="round" x1="288" y1="324" x2="288" y2="144"/>
	<line fill="none" stroke="#22B573" stroke-width="5" stroke-linecap="round" x1="288" y1="324" x2="288" y2="144"/>
</g>
<polygon fill="#22B573" points="270,198 288.041,161.867 306,198 "/>
<g>
	<line fill="none" stroke="#FFFFFF" stroke-width="20" x1="288" y1="324" x2="288" y2="441"/>
	<line fill="none" stroke="#22B573" stroke-width="5" stroke-linecap="round" x1="288" y1="324" x2="288" y2="441"/>
</g>
<polygon fill="#22B573" points="270,405.133 288.041,369 306,405.133 "/>
<line fill="none" stroke="#22B573" stroke-width="5" stroke-linecap="round" x1="288" y1="324" x2="144" y2="252"/>
<line fill="none" stroke="#22B573" stroke-width="5" stroke-linecap="round" x1="288" y1="324" x2="432" y2="252"/>
</svg>
