<?xml version="1.0" encoding="UTF-8"?>
<svg width="198px" height="223px" viewBox="0 0 198 223" version="1.1" xmlns="http://www.w3.org/2000/svg" xmlns:xlink="http://www.w3.org/1999/xlink">
    <!-- Generator: Sketch 52.4 (67378) - http://www.bohemiancoding.com/sketch -->
    <title>Group 12</title>
    <desc>Created with Sketch.</desc>
    <defs>
        <polygon id="path-1" points="0 0.927529412 230.926333 0.927529412 230.926333 235.998729 0 235.998729"></polygon>
    </defs>
    <g id="Symbols" stroke="none" stroke-width="1" fill="none" fill-rule="evenodd">
        <g id="Group-12" transform="translate(-16.000000, -7.000000)">
            <g id="Group-3">
                <mask id="mask-2" fill="white">
                    <use xlink:href="#path-1"></use>
                </mask>
                <g id="Clip-2"></g>
            </g>
            <path d="M41.6097904,105.009996 C55.3844624,93.4235739 64.6970064,77.4037007 67.9051555,59.7584398 C68.2425203,57.9053712 68.6308082,56.1281961 69,54.3193988 C44.6524398,49.4622087 25.9255059,52.124809 19.4073617,63.3380877 C12.9528712,74.4438505 19.8211111,91.6716967 35.8936835,110 C37.7651038,108.330341 39.6365241,106.667006 41.6097904,105.009996" id="Fill-4" fill="#ffffff"></path>
            <path d="M163.088593,59.7584398 C166.297079,77.4037007 175.610601,93.4235739 189.386719,105.009996 C191.360192,106.667006 193.238175,108.336665 195.103426,110 C211.184051,91.6716967 218.046646,74.450175 211.591478,63.3380877 C205.079016,52.124809 186.34375,49.4622087 162,54.3193988 C162.362864,56.1281961 162.751193,57.9053712 163.088593,59.7584398" id="Fill-6" fill="#ffffff"></path>
            <path d="M141.215962,188.511158 C124.284423,182.496281 105.715577,182.496281 88.7840385,188.511158 C86.4930769,189.321095 84.2465385,190.055688 82,190.784003 C89.92,214.755613 101.761923,230 115,230 C128.238077,230 140.08,214.755613 148,190.784003 C145.753462,190.055688 143.506923,189.321095 141.215962,188.511158" id="Fill-8" fill="#ffffff"></path>
            <path d="M117.099283,146.065734 C103.290012,146.065734 92.0953635,134.845629 92.0953635,121.012796 C92.0953635,107.179964 103.290012,95.9598591 117.099283,95.9598591 C130.9149,95.9598591 142.109548,107.179964 142.109548,121.012796 C142.109548,134.845629 130.9149,146.065734 117.099283,146.065734 M186.742179,118.730633 C185.523714,117.52916 184.273518,116.327687 182.985245,115.126214 C167.583084,100.733966 156.851707,82.1079559 152.111116,61.5557746 C151.711307,59.8393846 151.298806,58.1484226 150.867266,56.4956026 C143.11859,26.6431302 129.943936,7 114.9987,7 C100.053464,7 86.885156,26.6431302 79.1301333,56.4956026 C78.6985936,58.1484226 78.2860924,59.8393846 77.8926297,61.5557746 C73.1520389,82.1079559 62.4143152,100.733966 47.018501,115.126214 C45.7238818,116.327687 44.4736858,117.52916 43.2615669,118.730633 C21.3291951,140.382576 10.9341647,161.62767 18.4036096,174.59595 C25.8730545,187.557873 49.4427388,189.166194 79.1301333,180.965664 C80.773792,180.50796 82.4428353,180.024828 84.124571,179.509911 C104.267322,173.343621 125.730077,173.343621 145.879175,179.509911 C147.56091,180.024828 149.223607,180.50796 150.867266,180.965664 C180.554661,189.166194 204.124345,187.557873 211.59379,174.59595 C219.069581,161.62767 208.668204,140.382576 186.742179,118.730633" id="Fill-10" fill="#ffffff"></path>
        </g>
    </g>
</svg>