<?xml version="1.0" encoding="utf-8"?>
<!-- Generator: Adobe Illustrator 14.0.0, SVG Export Plug-In . SVG Version: 6.00 Build 43363)  -->
<!DOCTYPE svg PUBLIC "-//W3C//DTD SVG 1.1//EN" "http://www.w3.org/Graphics/SVG/1.1/DTD/svg11.dtd">
<svg version="1.1" id="Layer_1" xmlns="http://www.w3.org/2000/svg" xmlns:xlink="http://www.w3.org/1999/xlink" x="0px" y="0px"
	 width="247px" height="255.303px" viewBox="-3.5 -2.803 247 255.303" enable-background="new -3.5 -2.803 247 255.303"
	 xml:space="preserve">
<g>
	<circle fill="#FFFFFF" cx="119.559" cy="123.625" r="100.183"/>
	<circle fill="none" stroke="#FFFFFF" stroke-width="30" cx="119.559" cy="123.625" r="100.183"/>
	<circle fill="none" stroke="#22B573" stroke-width="10" cx="119.559" cy="123.625" r="100.183"/>
</g>
<g>
	<path fill="none" stroke="#FFFFFF" stroke-width="20" d="M120.088,124.527"/>
	<path fill="none" stroke="#22B573" stroke-width="10" d="M120.088,124.527"/>
</g>
<g>
	<path fill="none" stroke="#FFFFFF" stroke-width="20" d="M114.792,136.605"/>
	<path fill="none" stroke="#22B573" stroke-width="10" d="M114.792,136.605"/>
</g>
<path fill="none" stroke="#22B573" stroke-width="10" d="M158.285,180.049"/>
<path fill="none" stroke="#22B573" stroke-width="10" d="M158.285,180.049"/>
<path fill="none" stroke="#22B573" stroke-width="10" d="M182.201,80.947"/>
<path fill="none" stroke="#22B573" stroke-width="10" d="M201.77,86.85"/>
<path fill="none" stroke="#22B573" stroke-width="10" d="M197.043,105.065"/>
<path fill="none" stroke="#22B573" stroke-width="10" d="M201.77,86.85"/>
<g>
	<g>
		<g>
			
				<line fill="none" stroke="#FFFFFF" stroke-width="30" stroke-linecap="round" x1="216.98" y1="69.943" x2="120.135" y2="125.846"/>
		</g>
		<g>
			
				<line fill="none" stroke="#FFFFFF" stroke-width="30" stroke-linecap="round" x1="22.153" y1="69.491" x2="119.199" y2="125.534"/>
		</g>
	</g>
	<g>
		<g>
			
				<line fill="none" stroke="#22B573" stroke-width="10" stroke-linecap="round" x1="216.98" y1="69.943" x2="120.135" y2="125.846"/>
		</g>
		<g>
			
				<line fill="none" stroke="#22B573" stroke-width="10" stroke-linecap="round" x1="22.153" y1="69.491" x2="119.199" y2="125.534"/>
		</g>
	</g>
</g>
<g>
	
		<line fill="none" stroke="#FFFFFF" stroke-width="30" stroke-linecap="round" x1="120.307" y1="235.001" x2="120.115" y2="124.527"/>
	
		<line fill="none" stroke="#22B573" stroke-width="10" stroke-linecap="round" x1="120.307" y1="235.001" x2="120.115" y2="124.527"/>
</g>
<circle fill="#22B573" cx="118.85" cy="125.024" r="20.248"/>
<polygon fill="#22B573" points="76.159,122.307 42.686,80.174 95.883,88.283 "/>
<polygon fill="#22B573" points="142.365,89.762 195.591,81.84 161.969,123.855 "/>
<polygon fill="#22B573" points="100.268,201.729 120.02,151.673 139.596,201.798 "/>
</svg>
