<?xml version="1.0" encoding="utf-8"?>
<!-- Generator: Adobe Illustrator 14.0.0, SVG Export Plug-In . SVG Version: 6.00 Build 43363)  -->
<!DOCTYPE svg PUBLIC "-//W3C//DTD SVG 1.1//EN" "http://www.w3.org/Graphics/SVG/1.1/DTD/svg11.dtd">
<svg version="1.1" id="Layer_1" xmlns="http://www.w3.org/2000/svg" xmlns:xlink="http://www.w3.org/1999/xlink" x="0px" y="0px"
	 width="238px" height="246px" viewBox="0 0 238 246" enable-background="new 0 0 238 246" xml:space="preserve">
<circle fill="#FFFFFF" stroke="#22B573" stroke-width="10" cx="119.559" cy="117.625" r="100.183"/>
<g>
	<path fill="none" stroke="#FFFFFF" stroke-width="20" d="M120.088,118.527"/>
	<path fill="none" stroke="#22B573" stroke-width="10" d="M120.088,118.527"/>
</g>
<g>
	<path fill="none" stroke="#FFFFFF" stroke-width="20" d="M114.792,130.605"/>
	<path fill="none" stroke="#22B573" stroke-width="10" d="M114.792,130.605"/>
</g>
<path fill="none" stroke="#22B573" stroke-width="10" d="M158.285,174.049"/>
<path fill="none" stroke="#22B573" stroke-width="10" d="M158.285,174.049"/>
<path fill="none" stroke="#22B573" stroke-width="10" d="M182.201,74.947"/>
<path fill="none" stroke="#22B573" stroke-width="10" d="M201.77,80.85"/>
<path fill="none" stroke="#22B573" stroke-width="10" d="M197.043,99.065"/>
<path fill="none" stroke="#22B573" stroke-width="10" d="M201.77,80.85"/>
<g>
	<g>
		<g>
			
				<line fill="none" stroke="#FFFFFF" stroke-width="30" stroke-linecap="round" x1="216.98" y1="63.943" x2="120.135" y2="119.846"/>
		</g>
		<g>
			
				<line fill="none" stroke="#FFFFFF" stroke-width="30" stroke-linecap="round" x1="22.153" y1="63.491" x2="119.199" y2="119.534"/>
		</g>
	</g>
	<g>
		<g>
			
				<line fill="none" stroke="#22B573" stroke-width="10" stroke-linecap="round" x1="216.98" y1="63.943" x2="120.135" y2="119.846"/>
		</g>
		<g>
			
				<line fill="none" stroke="#22B573" stroke-width="10" stroke-linecap="round" x1="22.153" y1="63.491" x2="119.199" y2="119.534"/>
		</g>
	</g>
</g>
<g>
	
		<line fill="none" stroke="#FFFFFF" stroke-width="30" stroke-linecap="round" x1="120.307" y1="229.001" x2="120.115" y2="118.527"/>
	
		<line fill="none" stroke="#22B573" stroke-width="10" stroke-linecap="round" x1="120.307" y1="229.001" x2="120.115" y2="118.527"/>
</g>
<circle fill="#22B573" cx="118.85" cy="119.024" r="20.248"/>
<polygon fill="#22B573" points="76.159,116.307 42.686,74.174 95.883,82.283 "/>
<polygon fill="#22B573" points="142.365,83.762 195.591,75.84 161.969,117.855 "/>
<polygon fill="#22B573" points="100.268,195.729 120.02,145.673 139.595,195.798 "/>
</svg>
