<?xml version="1.0" encoding="utf-8"?>
<!-- Generator: Adobe Illustrator 14.0.0, SVG Export Plug-In . SVG Version: 6.00 Build 43363)  -->
<!DOCTYPE svg PUBLIC "-//W3C//DTD SVG 1.1//EN" "http://www.w3.org/Graphics/SVG/1.1/DTD/svg11.dtd">
<svg version="1.1" xmlns="http://www.w3.org/2000/svg" xmlns:xlink="http://www.w3.org/1999/xlink" x="0px" y="0px" width="2500px"
	 height="2246px" viewBox="0 0 2500 2246" enable-background="new 0 0 2500 2246" xml:space="preserve">
<g id="Navi">
	<g>
		<g>
			<path fill="#1EE79E" d="M1725.751,1993.338C1725.75,1993.338,1725.75,1993.338,1725.751,1993.338
				c-19.758-0.001-38.16-10.62-48.027-27.714l-393.642-681.803l12.551-3.394c14.074-3.806,27.653-9.455,40.359-16.79
				c12.435-7.18,23.883-15.88,34.026-25.858l9.212-9.062l393.463,681.498c7.4,12.817,9.367,27.75,5.536,42.046
				c-3.83,14.296-12.998,26.245-25.816,33.646C1744.992,1990.768,1735.427,1993.338,1725.751,1993.338L1725.751,1993.338z"/>
			<path fill="#1EE79E" d="M1124.581,1007.558L730.94,325.753c-15.276-26.46-6.177-60.415,20.282-75.69
				c8.42-4.861,17.986-7.431,27.662-7.431c19.756,0,38.16,10.618,48.028,27.711l393.465,681.5l-12.455,3.446
				c-13.715,3.795-26.973,9.359-39.407,16.539c-12.705,7.335-24.386,16.27-34.72,26.556L1124.581,1007.558L1124.581,1007.558z"/>
			<path fill="#1EE79E" d="M2199.099,1173.394h-787.277l3.336-12.566c3.741-14.09,5.638-28.674,5.638-43.347
				c0-14.354-1.811-28.618-5.381-42.396l-3.241-12.508h786.926c30.553,0,55.409,24.857,55.409,55.41
				C2254.508,1148.537,2229.651,1173.394,2199.099,1173.394L2199.099,1173.394z"/>
			<path fill="#1EE79E" d="M1092.817,1173.394h-787.28c-30.553,0-55.41-24.856-55.41-55.408c0-30.553,24.857-55.41,55.41-55.41
				h786.928l-3.242,12.509c-3.57,13.776-5.381,28.04-5.381,42.396c0,14.673,1.897,29.257,5.638,43.347L1092.817,1173.394
				L1092.817,1173.394z"/>
			<path fill="#1EE79E" d="M1380.054,1007.556l-9.214-9.173c-10.329-10.283-22.011-19.217-34.721-26.556
				c-12.437-7.179-25.694-12.743-39.405-16.538l-12.454-3.447l393.463-681.499c9.868-17.093,28.271-27.712,48.027-27.712
				c9.677,0,19.242,2.57,27.662,7.431c12.817,7.399,21.986,19.348,25.817,33.645c3.83,14.296,1.864,29.229-5.536,42.046
				L1380.054,1007.556L1380.054,1007.556z"/>
			<path fill="#1EE79E" d="M778.887,1993.338c-0.002,0-0.001,0-0.003,0c-9.678-0.001-19.243-2.57-27.663-7.432
				c-12.817-7.399-21.985-19.348-25.816-33.645c-3.831-14.296-1.865-29.229,5.535-42.045l393.463-681.499l9.212,9.062
				c10.147,9.98,21.596,18.68,34.027,25.856c12.708,7.337,26.286,12.986,40.359,16.791l12.551,3.394l-393.64,681.805
				C817.044,1982.718,798.64,1993.338,778.887,1993.338L778.887,1993.338z"/>
			<path fill="#1EE79E" d="M1252.843,1856.46c-99.689,0-196.401-19.526-287.45-58.037c-87.938-37.195-166.913-90.44-234.729-158.258
				c-67.817-67.817-121.062-146.791-158.257-234.729c-38.51-91.049-58.037-187.761-58.037-287.449
				c0-99.69,19.527-196.403,58.037-287.453c37.195-87.938,90.44-166.914,158.257-234.731
				c67.817-67.817,146.791-121.063,234.729-158.258c91.049-38.511,187.761-58.038,287.45-58.038
				c99.689,0,196.402,19.527,287.452,58.038c87.938,37.195,166.914,90.44,234.73,158.258
				c67.817,67.817,121.063,146.792,158.259,234.731c38.511,91.05,58.037,187.763,58.037,287.453
				c0,99.688-19.526,196.4-58.037,287.449c-37.195,87.938-90.441,166.912-158.259,234.729s-146.792,121.062-234.73,158.258
				C1449.245,1836.934,1352.532,1856.46,1252.843,1856.46L1252.843,1856.46z M1252.843,489.508
				c-84.887,0-167.183,16.603-244.6,49.348c-37.217,15.742-73.122,35.231-106.716,57.927c-33.3,22.498-64.618,48.338-93.083,76.802
				c-28.463,28.463-54.303,59.781-76.801,93.083c-22.695,33.593-42.185,69.498-57.927,106.717
				c-32.745,77.417-49.348,159.713-49.348,244.602c0,84.887,16.603,167.181,49.348,244.598
				c15.742,37.218,35.231,73.123,57.927,106.717c22.5,33.303,48.339,64.619,76.801,93.081
				c28.466,28.466,59.784,54.307,93.083,76.803c33.592,22.693,69.497,42.184,106.716,57.927
				c77.418,32.744,159.713,49.348,244.6,49.348c84.887,0,167.183-16.604,244.602-49.348c37.22-15.743,73.125-35.232,106.718-57.927
				c33.3-22.498,64.617-48.338,93.082-76.803c28.462-28.46,54.302-59.777,76.803-93.083c22.693-33.59,42.183-69.494,57.927-106.715
				c32.745-77.418,49.348-159.713,49.348-244.598c0-84.887-16.603-167.183-49.348-244.602
				c-15.743-37.221-35.232-73.125-57.928-106.717c-22.498-33.302-48.338-64.62-76.802-93.083
				c-28.465-28.464-59.782-54.304-93.083-76.802c-33.593-22.695-69.498-42.185-106.717-57.927
				C1420.026,506.111,1337.73,489.508,1252.843,489.508L1252.843,489.508z"/>
		</g>
	</g>
	<g>
		<g>
			<path fill="#1EE79E" d="M2162.663,1219.418c-55.931,0-101.434-45.503-101.434-101.433c0-55.931,45.503-101.434,101.434-101.434
				c55.932,0,101.435,45.502,101.435,101.434C2264.098,1173.915,2218.595,1219.418,2162.663,1219.418L2162.663,1219.418z"/>
			<path fill="#1EE79E" d="M341.973,1219.418c-55.931,0-101.434-45.503-101.434-101.433c0-55.931,45.503-101.434,101.434-101.434
				c55.93,0,101.433,45.502,101.433,101.434C443.406,1173.915,397.903,1219.418,341.973,1219.418L341.973,1219.418z"/>
			<path fill="#1EE79E" d="M1707.543,2007.81c-36.15,0-69.831-19.437-87.896-50.725c-27.965-48.443-11.309-110.601,37.127-138.562
				c15.408-8.896,32.929-13.599,50.666-13.599c36.15,0,69.829,19.438,87.894,50.725c13.548,23.467,17.146,50.801,10.134,76.972
				c-7.013,26.172-23.798,48.045-47.262,61.591C1742.801,2003.106,1725.28,2007.81,1707.543,2007.81L1707.543,2007.81z"/>
			<path fill="#1EE79E" d="M797.197,431.045c-36.152,0-69.832-19.438-87.896-50.727c-13.547-23.463-17.146-50.798-10.133-76.969
				c7.012-26.17,23.797-48.044,47.261-61.591c15.408-8.896,32.928-13.598,50.664-13.598c36.151,0,69.831,19.437,87.896,50.727
				c13.547,23.462,17.146,50.797,10.133,76.969c-7.013,26.171-23.797,48.044-47.261,61.591
				C832.452,426.342,814.933,431.045,797.197,431.045L797.197,431.045z"/>
			<path fill="#1EE79E" d="M1707.436,431.045c-17.735,0-35.255-4.702-50.663-13.597c-48.436-27.966-65.091-90.124-37.127-138.56
				c18.065-31.291,51.746-50.728,87.897-50.728c17.737,0,35.257,4.703,50.665,13.6c48.434,27.962,65.091,90.12,37.126,138.558
				C1777.27,411.607,1743.589,431.045,1707.436,431.045L1707.436,431.045z"/>
			<path fill="#1EE79E" d="M797.092,2007.81c-17.737,0-35.257-4.703-50.666-13.601c-48.434-27.961-65.09-90.118-37.126-138.558
				c18.068-31.291,51.747-50.728,87.896-50.728c17.736,0,35.257,4.703,50.667,13.601c48.437,27.966,65.091,90.122,37.126,138.559
				C866.922,1988.373,833.242,2007.81,797.092,2007.81L797.092,2007.81z"/>
		</g>
	</g>
	<path fill="#1EE79E" d="M1438.879,1117.987c0,102.746-83.294,186.039-186.041,186.039s-186.041-83.293-186.041-186.039
		c0-102.749,83.293-186.042,186.041-186.042S1438.879,1015.238,1438.879,1117.987z"/>
</g>
</svg>
