<?xml version="1.0" standalone="no"?>
<!DOCTYPE svg PUBLIC "-//W3C//DTD SVG 20010904//EN"
 "http://www.w3.org/TR/2001/REC-SVG-20010904/DTD/svg10.dtd">
<svg version="1.0" xmlns="http://www.w3.org/2000/svg"
 width="255.000000pt" height="255.000000pt" viewBox="0 0 255.000000 255.000000"
 preserveAspectRatio="xMidYMid meet">
<metadata>
Created by potrace 1.11, written by Peter Selinger 2001-2013
</metadata>
<g transform="translate(0.000000,255.000000) scale(0.100000,-0.100000)"
fill="#000000" stroke="none">
<path d="M1125 2330 c-163 -26 -347 -101 -475 -195 -71 -53 -210 -192 -210
-210 0 -7 19 -22 43 -34 l42 -22 91 89 c314 308 773 360 1162 130 31 -18 100
-76 155 -128 l98 -96 44 25 c54 29 52 35 -49 136 -151 151 -326 246 -531 291
-86 19 -288 26 -370 14z"/>
<path d="M266 1864 c-26 -26 -19 -60 17 -87 17 -13 97 -61 177 -107 l145 -83
119 -150 118 -150 35 61 35 62 46 -27 c111 -64 107 -60 104 -97 -8 -87 62
-194 137 -211 l31 -7 0 -88 c0 -86 -2 -93 -75 -279 -41 -104 -75 -193 -75
-196 0 -3 34 -5 75 -5 l75 0 0 -178 c0 -191 3 -202 50 -202 54 0 60 20 60 208
l0 172 70 0 c39 0 70 2 70 4 0 3 -31 85 -70 182 l-70 178 0 106 0 105 37 20
c52 28 94 99 97 164 3 57 -4 49 107 113 l46 27 33 -60 c19 -33 38 -58 42 -57
5 2 62 70 127 152 l119 149 173 101 c154 89 174 104 177 129 4 35 -13 57 -46
57 -14 0 -96 -41 -183 -91 l-157 -90 -204 -31 c-111 -16 -205 -31 -206 -33 -2
-2 13 -33 33 -69 l36 -65 -70 -40 -70 -41 -52 32 c-78 49 -155 45 -244 -11
-18 -11 -29 -7 -93 29 -39 23 -72 43 -72 45 0 2 16 31 36 65 20 33 34 64 30
67 -4 4 -100 21 -215 39 l-207 31 -150 87 c-82 47 -157 86 -166 86 -9 0 -24
-7 -32 -16z"/>
<path d="M279 1633 c-63 -166 -75 -418 -28 -603 78 -305 284 -560 562 -695 88
-42 256 -95 305 -95 21 0 23 4 20 52 l-3 51 -85 22 c-277 71 -494 244 -621
497 -63 126 -90 232 -96 383 -4 110 -2 146 17 230 30 139 31 133 -17 162 l-43
25 -11 -29z"/>
<path d="M2210 1629 c-19 -12 -36 -22 -38 -24 -1 -1 7 -36 18 -76 28 -95 38
-289 20 -395 -60 -378 -355 -693 -722 -774 l-58 -13 0 -54 0 -55 43 7 c74 13
219 65 297 106 262 141 453 383 527 668 33 129 41 311 19 436 -20 118 -44 195
-59 195 -7 0 -28 -10 -47 -21z"/>
</g>
</svg>
