<?xml version="1.0" standalone="no"?>
<!DOCTYPE svg PUBLIC "-//W3C//DTD SVG 20010904//EN"
 "http://www.w3.org/TR/2001/REC-SVG-20010904/DTD/svg10.dtd">
<svg version="1.0" xmlns="http://www.w3.org/2000/svg"
 width="2500.000000pt" height="2500.000000pt" viewBox="0 0 2500.000000 2500.000000"
 preserveAspectRatio="xMidYMid meet">
<metadata>
Created by potrace 1.11, written by Peter Selinger 2001-2013
</metadata>
<g transform="translate(0.000000,2500.000000) scale(0.100000,-0.100000)"
fill="#000000" stroke="none">
<path d="M7435 22239 c-102 -15 -132 -22 -210 -46 -167 -53 -315 -143 -445
-273 -94 -94 -151 -174 -211 -296 -42 -86 -83 -212 -93 -285 -3 -24 -8 -55
-11 -69 -8 -39 -8 -200 0 -255 11 -83 12 -88 24 -135 92 -360 361 -657 706
-777 90 -32 191 -53 285 -59 41 -3 78 -8 82 -12 4 -5 450 -774 548 -947 10
-16 48 -84 87 -150 38 -66 91 -158 118 -204 27 -47 44 -86 38 -90 -76 -50
-274 -196 -368 -270 -417 -329 -749 -650 -1131 -1096 -210 -245 -624 -835
-710 -1014 -4 -7 -30 -52 -57 -100 -53 -91 -227 -432 -264 -516 -12 -27 -39
-86 -59 -130 -99 -221 -286 -733 -319 -880 -2 -5 -17 -58 -34 -117 -28 -95
-82 -310 -95 -378 -2 -14 -12 -58 -20 -97 -17 -81 -16 -73 -50 -273 -14 -80
-27 -167 -31 -195 -3 -27 -8 -66 -10 -85 -20 -155 -25 -206 -31 -285 -4 -49
-8 -92 -9 -95 -3 -4 -1564 -5 -1602 -1 -6 0 -20 16 -30 34 -44 74 -151 193
-237 263 -131 107 -335 204 -486 230 -258 43 -506 6 -722 -108 -282 -150 -494
-424 -562 -728 -23 -102 -27 -138 -27 -251 -1 -121 6 -171 36 -284 8 -33 18
-67 22 -75 3 -8 7 -19 8 -25 2 -5 17 -41 35 -80 98 -216 291 -413 505 -520
362 -180 778 -154 1108 68 125 85 263 227 333 343 11 18 43 19 808 19 439 0
801 -2 805 -5 5 -3 12 -47 15 -98 8 -106 14 -164 21 -207 5 -31 9 -66 20 -150
3 -27 15 -104 26 -170 18 -114 22 -135 34 -195 2 -14 7 -41 10 -60 8 -51 83
-377 100 -435 8 -27 31 -107 50 -176 52 -189 189 -586 246 -714 5 -11 13 -33
19 -50 63 -173 348 -747 450 -905 5 -8 19 -33 31 -55 90 -166 377 -581 572
-825 7 -9 30 -38 52 -65 294 -370 787 -851 1200 -1171 72 -55 146 -111 165
-124 19 -13 37 -27 40 -30 3 -3 30 -22 60 -43 104 -72 101 -52 31 -172 -34
-58 -71 -122 -81 -141 -11 -18 -28 -49 -38 -66 -83 -147 -218 -378 -233 -400
-11 -15 -19 -29 -19 -31 0 -6 -342 -598 -360 -623 -13 -18 -29 -22 -103 -28
-49 -3 -92 -8 -97 -11 -4 -3 -25 -7 -46 -11 -53 -8 -188 -55 -254 -89 -71 -36
-184 -113 -234 -158 -22 -20 -42 -38 -45 -39 -16 -8 -105 -117 -145 -176 -86
-131 -155 -300 -171 -422 -4 -30 -9 -64 -11 -75 -7 -35 -7 -178 0 -235 31
-257 141 -487 316 -660 90 -88 111 -105 202 -161 139 -84 295 -139 452 -158
68 -8 248 -6 291 3 161 34 216 52 328 107 113 56 191 113 288 209 180 178 293
413 318 658 12 120 2 302 -20 359 -5 13 -6 23 -4 23 8 0 -56 173 -86 232 l-29
57 165 286 c91 157 174 300 184 318 28 49 126 218 204 352 73 126 85 146 182
318 33 59 66 107 73 107 7 0 20 -4 30 -10 41 -23 279 -127 417 -182 253 -102
505 -188 745 -255 69 -19 132 -36 140 -39 26 -7 170 -41 310 -72 132 -30 511
-95 620 -107 30 -3 69 -7 85 -9 17 -2 59 -7 95 -11 36 -3 81 -8 100 -10 19 -2
80 -7 135 -11 321 -21 806 -20 1035 1 30 3 93 7 140 10 47 3 117 9 155 15 39
5 91 12 118 15 91 10 142 16 167 21 65 10 217 37 235 40 11 2 47 9 80 15 80
14 416 89 425 94 3 2 17 6 31 9 160 31 718 218 974 326 32 14 204 90 285 127
l75 35 15 -23 c8 -12 29 -47 46 -78 35 -64 379 -660 463 -801 31 -52 58 -99
60 -105 2 -5 39 -70 83 -143 43 -74 78 -136 78 -138 0 -2 13 -23 28 -48 l29
-44 -38 -79 c-35 -72 -77 -200 -94 -283 -4 -19 -8 -99 -10 -177 -3 -151 12
-251 56 -378 91 -258 289 -488 528 -612 76 -40 194 -84 261 -99 19 -4 42 -9
50 -11 52 -12 168 -20 249 -17 392 13 757 246 938 599 38 74 86 208 98 273 3
15 8 38 11 52 10 41 13 272 4 320 -4 25 -11 62 -14 84 -4 21 -17 71 -30 110
-143 426 -523 729 -953 761 -43 4 -83 8 -89 10 -10 3 -57 77 -114 180 -12 22
-39 69 -60 105 -21 36 -47 81 -58 100 -53 93 -140 245 -257 445 -70 121 -139
240 -153 265 -14 25 -42 74 -64 109 -21 34 -38 66 -38 70 0 3 -14 26 -30 51
-16 25 -30 48 -30 51 0 4 55 46 123 95 159 114 366 276 492 384 55 48 113 97
129 111 77 64 332 313 476 464 78 83 277 309 343 390 169 210 363 477 489 675
83 132 198 320 198 325 0 2 23 43 51 92 53 91 205 395 273 543 163 358 352
906 437 1270 41 171 69 302 75 348 3 26 8 50 10 53 2 3 8 34 13 70 6 35 13 74
15 85 10 50 18 102 36 249 7 50 13 101 16 115 2 14 7 61 10 105 4 44 8 87 10
95 1 8 3 31 3 50 l1 35 799 0 800 0 43 -65 c23 -36 83 -106 133 -156 161 -163
376 -278 575 -308 19 -3 46 -8 60 -11 14 -3 77 -6 140 -6 545 -4 1005 386
1097 931 10 56 11 279 2 330 -73 420 -330 731 -726 881 -28 11 -60 22 -70 24
-10 2 -52 11 -93 20 -81 17 -248 23 -345 11 -288 -35 -568 -199 -746 -438 -31
-42 -59 -83 -61 -90 -4 -10 -160 -13 -805 -13 l-801 0 -7 80 c-3 44 -8 96 -10
115 -3 19 -7 55 -10 80 -7 66 -16 142 -20 170 -2 14 -7 45 -10 70 -3 25 -15
95 -25 156 -11 61 -22 129 -26 150 -9 65 -93 433 -120 529 -14 50 -36 128 -49
175 -21 76 -57 190 -72 230 -4 8 -7 17 -8 20 -9 38 -73 214 -130 360 -317 810
-747 1514 -1340 2196 -147 168 -484 507 -621 624 -16 14 -76 66 -134 116 -129
112 -346 282 -502 392 -65 46 -118 85 -118 87 0 2 40 73 88 157 49 84 97 169
108 188 10 19 22 37 27 38 4 2 7 7 7 12 0 4 48 90 106 191 139 240 332 576
354 614 10 17 34 58 54 92 20 34 36 66 36 72 0 13 26 19 113 25 400 30 769
304 926 688 57 140 79 264 76 422 -3 141 -9 181 -42 296 -46 161 -148 339
-265 460 -213 221 -514 343 -825 334 -353 -10 -663 -177 -871 -469 -91 -127
-145 -252 -182 -423 -23 -106 -21 -342 4 -445 22 -88 69 -217 99 -271 l24 -43
-70 -119 c-38 -65 -81 -141 -95 -167 -15 -26 -32 -56 -37 -65 -35 -59 -91
-155 -325 -562 -144 -250 -266 -458 -269 -463 -4 -4 -72 22 -152 58 -79 37
-189 84 -244 106 -55 22 -109 44 -120 49 -161 72 -787 268 -945 296 -14 3 -43
10 -65 16 -22 5 -51 12 -65 15 -14 2 -50 10 -80 18 -30 7 -125 25 -210 40 -85
15 -157 28 -160 30 -3 2 -34 6 -69 10 -34 4 -70 8 -79 10 -9 1 -46 6 -82 10
-36 4 -72 8 -80 10 -16 3 -95 11 -195 20 -59 5 -116 9 -285 21 -107 7 -627 7
-740 -1 -211 -13 -386 -28 -475 -40 -16 -2 -59 -7 -95 -10 -35 -4 -73 -9 -85
-11 -11 -2 -40 -6 -65 -9 -52 -6 -59 -8 -240 -40 -468 -85 -1096 -268 -1455
-424 -11 -5 -45 -19 -75 -31 -61 -25 -124 -53 -249 -111 -46 -21 -89 -39 -95
-39 -9 1 -45 59 -213 355 -10 17 -30 50 -44 75 -15 25 -36 61 -47 80 -10 19
-128 223 -260 453 l-242 418 26 52 c37 72 72 168 91 246 20 86 22 106 27 231
11 297 -104 583 -323 800 -162 161 -353 264 -567 306 -90 17 -265 24 -339 13z
m5390 -3413 c235 -11 273 -14 630 -60 17 -2 46 -6 65 -10 78 -14 97 -17 130
-21 73 -11 351 -72 455 -100 306 -85 612 -184 720 -235 11 -5 58 -24 105 -43
133 -53 240 -101 240 -109 0 -5 -64 -120 -100 -178 -11 -18 -200 -346 -216
-375 -6 -11 -40 -70 -76 -131 -35 -61 -68 -117 -72 -125 -4 -8 -12 -23 -19
-34 -7 -11 -77 -133 -156 -270 -79 -138 -152 -262 -162 -277 -11 -15 -19 -29
-19 -32 0 -4 -179 -316 -380 -661 -138 -238 -239 -414 -270 -470 -18 -33 -39
-67 -46 -76 -8 -8 -14 -18 -14 -22 0 -3 -54 -100 -120 -214 -66 -114 -126
-217 -132 -228 -6 -11 -82 -141 -168 -290 -86 -148 -185 -321 -221 -383 l-64
-113 -43 6 c-24 4 -51 8 -60 10 -144 26 -466 27 -602 0 -14 -3 -46 -8 -71 -11
l-46 -6 -66 114 c-36 63 -74 129 -85 148 -10 19 -83 145 -161 279 -77 134
-141 247 -141 249 0 3 -6 13 -14 21 -8 9 -26 39 -41 66 -14 28 -36 66 -47 85
-28 48 -245 424 -267 463 -10 18 -60 104 -111 192 -51 88 -101 174 -110 190
-9 17 -126 219 -260 450 -133 231 -249 434 -258 450 -9 17 -22 37 -28 45 -6 8
-25 40 -41 70 -36 65 -19 36 -273 475 -111 193 -212 366 -223 385 -10 19 -39
69 -63 111 -24 42 -44 79 -44 83 0 6 55 34 80 41 3 1 32 14 65 30 250 115 847
314 1055 352 14 2 54 11 90 19 80 19 155 34 195 40 30 4 38 5 130 24 68 13
352 49 445 56 41 3 86 7 100 10 14 2 106 7 205 10 99 4 181 7 182 8 4 3 261
-2 398 -8z m-3855 -1230 c0 -3 21 -40 48 -83 26 -43 53 -89 60 -103 6 -14 16
-32 22 -40 6 -8 40 -67 76 -130 36 -63 109 -189 161 -280 53 -91 103 -178 113
-195 9 -16 68 -118 130 -225 112 -193 130 -225 171 -297 12 -21 61 -105 109
-188 48 -82 98 -170 112 -195 14 -25 99 -171 188 -325 89 -154 171 -296 182
-315 11 -19 29 -51 40 -70 48 -83 277 -479 300 -520 14 -25 83 -144 153 -265
71 -121 138 -236 149 -256 12 -20 44 -77 72 -125 28 -49 62 -110 77 -135 l26
-47 -21 -18 c-32 -30 -134 -166 -191 -257 -67 -108 -112 -200 -157 -322 l-38
-100 -2241 0 -2242 0 6 72 c3 40 8 83 10 95 4 23 22 160 31 233 3 22 12 72 19
110 8 39 17 90 20 115 22 156 133 578 217 825 45 134 146 398 183 480 7 16 37
82 66 145 145 323 366 703 593 1020 79 111 288 380 327 420 8 8 41 47 74 85
33 39 69 79 80 91 11 11 68 70 126 130 139 143 257 256 350 335 40 35 80 69
87 76 30 29 302 243 377 296 l79 57 28 -45 c15 -25 28 -47 28 -49z m7239 47
c232 -164 509 -401 751 -643 196 -196 217 -218 351 -375 524 -613 920 -1316
1182 -2095 45 -132 125 -409 133 -459 3 -14 7 -33 10 -41 3 -8 8 -26 10 -40 3
-13 14 -60 24 -105 16 -69 24 -109 45 -235 3 -14 10 -51 15 -83 11 -56 14 -76
25 -167 7 -59 13 -105 21 -160 3 -25 7 -65 8 -90 l1 -45 -2240 0 -2239 0 -36
95 c-84 218 -213 433 -352 585 -24 26 -26 32 -14 50 7 11 25 43 41 70 15 28
40 70 55 95 28 46 442 764 467 810 8 14 22 39 32 55 26 43 428 738 471 815 20
36 54 94 75 130 20 36 45 79 55 95 9 17 50 87 90 155 40 69 82 141 92 160 10
19 23 42 28 50 5 8 47 80 93 160 123 212 311 540 334 580 55 97 154 267 163
280 6 8 13 22 17 30 3 8 21 39 40 68 18 29 33 54 33 56 0 3 27 50 60 106 33
56 60 105 60 109 0 8 21 31 28 31 3 0 34 -21 71 -47z m-5457 -5653 c3 -3 19
-45 38 -95 65 -179 185 -385 308 -531 l60 -72 -17 -28 c-10 -16 -29 -49 -43
-74 -22 -39 -213 -369 -246 -425 -6 -11 -66 -114 -132 -230 -66 -115 -125
-217 -130 -225 -5 -8 -22 -37 -38 -65 -60 -104 -75 -132 -112 -195 -21 -36
-47 -81 -58 -100 -11 -19 -77 -134 -147 -255 -111 -192 -201 -347 -409 -708
-28 -48 -58 -100 -66 -115 -16 -28 -64 -111 -184 -317 -38 -66 -79 -138 -91
-160 -12 -22 -59 -102 -104 -179 -44 -76 -81 -140 -81 -143 0 -2 -16 -28 -35
-58 -19 -30 -47 -78 -62 -106 -15 -29 -32 -59 -38 -68 -11 -18 -91 -156 -123
-211 -38 -67 -124 -215 -126 -217 -4 -4 -184 127 -239 172 -7 6 -43 35 -82 65
-70 54 -271 228 -331 285 -234 224 -334 328 -510 530 -183 211 -405 513 -554
755 -29 47 -61 97 -71 112 -11 15 -19 29 -19 32 0 2 -20 39 -46 81 -277 469
-554 1187 -669 1735 -2 8 -9 38 -15 65 -17 75 -67 362 -74 425 -4 30 -8 69
-11 85 -7 48 -15 116 -21 180 l-6 60 2240 0 c1232 0 2242 -2 2244 -5z m8033
-35 c-2 -22 -7 -62 -10 -90 -3 -27 -8 -66 -10 -85 -2 -19 -7 -57 -10 -85 -28
-221 -106 -597 -180 -862 -59 -209 -190 -583 -259 -737 -8 -17 -29 -65 -47
-106 -94 -214 -312 -620 -417 -778 -23 -35 -42 -65 -42 -67 0 -2 -26 -41 -57
-87 -262 -383 -476 -642 -783 -948 -96 -96 -198 -195 -225 -220 -248 -221
-593 -489 -614 -476 -5 4 -16 19 -24 34 -16 32 -13 26 -202 352 -81 140 -159
275 -173 300 -13 25 -39 70 -57 100 -18 30 -42 71 -53 90 -10 19 -48 85 -84
146 -36 61 -68 117 -71 125 -4 8 -15 28 -26 44 -10 17 -28 48 -41 70 -12 22
-55 96 -95 165 -40 69 -83 143 -95 165 -13 22 -31 54 -41 70 -11 17 -22 37
-26 45 -3 8 -21 39 -40 68 -18 29 -33 54 -33 57 0 2 -22 42 -49 87 -27 46 -58
99 -68 118 -30 53 -363 631 -384 665 -24 41 -109 189 -144 250 -15 28 -31 55
-35 60 -6 9 -325 561 -379 658 -11 20 -31 53 -44 74 -12 21 -35 58 -49 83
l-26 45 40 45 c45 51 178 233 178 245 0 4 9 20 21 36 31 44 113 215 139 289
12 36 26 72 30 80 7 14 255 15 2249 15 l2241 0 -5 -40z m-6619 -1229 c16 -4
52 -9 79 -12 28 -4 54 -9 59 -12 5 -3 86 -6 180 -7 153 -3 214 2 408 30 41 6
49 4 55 -12 4 -10 45 -83 91 -163 47 -80 154 -266 239 -413 197 -343 182 -317
243 -422 29 -49 66 -115 83 -145 16 -30 36 -62 43 -71 8 -8 14 -18 14 -22 0
-3 38 -70 84 -149 46 -79 110 -190 143 -248 33 -58 111 -193 173 -300 62 -107
121 -209 131 -227 10 -17 29 -50 43 -72 15 -22 26 -42 26 -45 0 -2 53 -95 118
-207 66 -112 130 -224 144 -249 35 -62 287 -498 309 -535 10 -16 27 -46 38
-65 10 -19 82 -144 160 -278 78 -134 141 -247 141 -253 0 -5 -4 -9 -9 -9 -5 0
-42 -15 -83 -34 -123 -58 -374 -155 -543 -212 -149 -49 -422 -130 -472 -140
-12 -2 -69 -15 -125 -28 -95 -22 -221 -48 -293 -61 -16 -2 -39 -7 -50 -9 -11
-2 -56 -9 -100 -16 -44 -6 -91 -13 -105 -15 -14 -2 -50 -6 -80 -10 -30 -3 -71
-8 -91 -11 -54 -7 -104 -11 -214 -19 -55 -4 -118 -9 -140 -11 -61 -5 -601 -5
-674 1 -36 2 -96 7 -135 10 -139 10 -201 16 -226 20 -14 2 -50 7 -80 10 -83 9
-263 35 -278 40 -7 3 -34 7 -60 10 -71 10 -395 81 -497 110 -165 47 -199 57
-214 60 -29 7 -366 122 -402 137 -19 9 -87 37 -153 63 -164 66 -266 114 -266
126 0 5 11 26 24 47 13 20 151 258 306 527 155 270 297 515 315 545 18 30 44
75 57 100 14 25 58 101 98 170 40 69 83 143 95 165 13 22 87 150 165 285 78
135 154 265 168 290 14 25 56 99 95 165 38 66 81 140 95 165 14 25 42 74 64
109 21 34 38 65 38 67 0 2 17 32 38 66 21 35 41 70 45 78 4 8 11 22 17 30 9
14 122 208 162 280 11 19 37 64 58 100 37 63 52 91 112 195 16 28 33 57 38 65
6 8 58 98 116 200 131 228 133 232 143 226 4 -3 21 -7 37 -10z"/>
</g>
</svg>
